<mxfile host="Electron" agent="Mozilla/5.0 (X11; Linux x86_64) AppleWebKit/537.36 (KHTML, like Gecko) draw.io/28.0.4 Chrome/138.0.7204.97 Electron/37.2.1 Safari/537.36" version="28.0.4">
  <diagram name="PÃ¡gina-1" id="MPT-0rjD_Xj1SV4SR2-i">
    <mxGraphModel dx="872" dy="540" grid="1" gridSize="10" guides="1" tooltips="1" connect="1" arrows="1" fold="1" page="1" pageScale="1" pageWidth="827" pageHeight="1169" math="0" shadow="0">
      <root>
        <mxCell id="0" />
        <mxCell id="1" parent="0" />
        <mxCell id="C6PDRTy2qsTD1fmPnYc9-71" style="edgeStyle=orthogonalEdgeStyle;rounded=0;orthogonalLoop=1;jettySize=auto;html=1;exitX=0;exitY=0.5;exitDx=0;exitDy=0;entryX=0.5;entryY=1;entryDx=0;entryDy=0;endArrow=none;endFill=0;" edge="1" parent="1" source="C6PDRTy2qsTD1fmPnYc9-1" target="C6PDRTy2qsTD1fmPnYc9-69">
          <mxGeometry relative="1" as="geometry">
            <Array as="points">
              <mxPoint x="350" y="120" />
              <mxPoint x="220" y="120" />
            </Array>
          </mxGeometry>
        </mxCell>
        <mxCell id="C6PDRTy2qsTD1fmPnYc9-76" value="N" style="edgeLabel;html=1;align=center;verticalAlign=middle;resizable=0;points=[];" vertex="1" connectable="0" parent="C6PDRTy2qsTD1fmPnYc9-71">
          <mxGeometry x="0.3161" y="-2" relative="1" as="geometry">
            <mxPoint as="offset" />
          </mxGeometry>
        </mxCell>
        <mxCell id="C6PDRTy2qsTD1fmPnYc9-78" style="edgeStyle=orthogonalEdgeStyle;rounded=0;orthogonalLoop=1;jettySize=auto;html=1;exitX=0.5;exitY=1;exitDx=0;exitDy=0;endArrow=none;endFill=0;" edge="1" parent="1" source="C6PDRTy2qsTD1fmPnYc9-1" target="C6PDRTy2qsTD1fmPnYc9-77">
          <mxGeometry relative="1" as="geometry" />
        </mxCell>
        <mxCell id="C6PDRTy2qsTD1fmPnYc9-102" value="1" style="edgeLabel;html=1;align=center;verticalAlign=middle;resizable=0;points=[];" vertex="1" connectable="0" parent="C6PDRTy2qsTD1fmPnYc9-78">
          <mxGeometry x="0.54" y="-1" relative="1" as="geometry">
            <mxPoint as="offset" />
          </mxGeometry>
        </mxCell>
        <mxCell id="C6PDRTy2qsTD1fmPnYc9-144" style="edgeStyle=orthogonalEdgeStyle;rounded=0;orthogonalLoop=1;jettySize=auto;html=1;exitX=0.75;exitY=0;exitDx=0;exitDy=0;entryX=0;entryY=1;entryDx=0;entryDy=0;endArrow=none;endFill=0;" edge="1" parent="1" source="C6PDRTy2qsTD1fmPnYc9-1" target="C6PDRTy2qsTD1fmPnYc9-64">
          <mxGeometry relative="1" as="geometry" />
        </mxCell>
        <mxCell id="C6PDRTy2qsTD1fmPnYc9-145" style="edgeStyle=orthogonalEdgeStyle;rounded=0;orthogonalLoop=1;jettySize=auto;html=1;exitX=1;exitY=0;exitDx=0;exitDy=0;entryX=0;entryY=1;entryDx=0;entryDy=0;endArrow=none;endFill=0;" edge="1" parent="1" source="C6PDRTy2qsTD1fmPnYc9-1" target="C6PDRTy2qsTD1fmPnYc9-65">
          <mxGeometry relative="1" as="geometry" />
        </mxCell>
        <mxCell id="C6PDRTy2qsTD1fmPnYc9-146" style="edgeStyle=orthogonalEdgeStyle;rounded=0;orthogonalLoop=1;jettySize=auto;html=1;exitX=1;exitY=1;exitDx=0;exitDy=0;entryX=0;entryY=0;entryDx=0;entryDy=0;endArrow=none;endFill=0;" edge="1" parent="1" source="C6PDRTy2qsTD1fmPnYc9-1" target="C6PDRTy2qsTD1fmPnYc9-63">
          <mxGeometry relative="1" as="geometry" />
        </mxCell>
        <mxCell id="C6PDRTy2qsTD1fmPnYc9-1" value="EMPLOYEES" style="rounded=0;whiteSpace=wrap;html=1;" vertex="1" parent="1">
          <mxGeometry x="350" y="90" width="110" height="30" as="geometry" />
        </mxCell>
        <mxCell id="C6PDRTy2qsTD1fmPnYc9-96" style="edgeStyle=orthogonalEdgeStyle;rounded=0;orthogonalLoop=1;jettySize=auto;html=1;exitX=0.5;exitY=0;exitDx=0;exitDy=0;entryX=0.5;entryY=1;entryDx=0;entryDy=0;shape=link;" edge="1" parent="1" source="C6PDRTy2qsTD1fmPnYc9-2" target="C6PDRTy2qsTD1fmPnYc9-19">
          <mxGeometry relative="1" as="geometry" />
        </mxCell>
        <mxCell id="C6PDRTy2qsTD1fmPnYc9-97" value="N" style="edgeLabel;html=1;align=center;verticalAlign=middle;resizable=0;points=[];" vertex="1" connectable="0" parent="C6PDRTy2qsTD1fmPnYc9-96">
          <mxGeometry x="0.2" y="-5" relative="1" as="geometry">
            <mxPoint as="offset" />
          </mxGeometry>
        </mxCell>
        <mxCell id="C6PDRTy2qsTD1fmPnYc9-119" style="edgeStyle=orthogonalEdgeStyle;rounded=0;orthogonalLoop=1;jettySize=auto;html=1;exitX=0.75;exitY=0;exitDx=0;exitDy=0;entryX=0;entryY=0.5;entryDx=0;entryDy=0;endArrow=none;endFill=0;" edge="1" parent="1" source="C6PDRTy2qsTD1fmPnYc9-2" target="C6PDRTy2qsTD1fmPnYc9-24">
          <mxGeometry relative="1" as="geometry" />
        </mxCell>
        <mxCell id="C6PDRTy2qsTD1fmPnYc9-120" style="edgeStyle=orthogonalEdgeStyle;rounded=0;orthogonalLoop=1;jettySize=auto;html=1;exitX=0;exitY=0.5;exitDx=0;exitDy=0;entryX=1;entryY=0.5;entryDx=0;entryDy=0;endArrow=none;endFill=0;" edge="1" parent="1" source="C6PDRTy2qsTD1fmPnYc9-2" target="C6PDRTy2qsTD1fmPnYc9-22">
          <mxGeometry relative="1" as="geometry" />
        </mxCell>
        <mxCell id="C6PDRTy2qsTD1fmPnYc9-2" value="PRODUCTS" style="rounded=0;whiteSpace=wrap;html=1;" vertex="1" parent="1">
          <mxGeometry x="115" y="450" width="110" height="30" as="geometry" />
        </mxCell>
        <mxCell id="C6PDRTy2qsTD1fmPnYc9-92" style="edgeStyle=orthogonalEdgeStyle;rounded=0;orthogonalLoop=1;jettySize=auto;html=1;exitX=0.5;exitY=0;exitDx=0;exitDy=0;entryX=0.5;entryY=1;entryDx=0;entryDy=0;endArrow=none;endFill=0;" edge="1" parent="1" source="C6PDRTy2qsTD1fmPnYc9-3" target="C6PDRTy2qsTD1fmPnYc9-26">
          <mxGeometry relative="1" as="geometry" />
        </mxCell>
        <mxCell id="C6PDRTy2qsTD1fmPnYc9-93" value="1" style="edgeLabel;html=1;align=center;verticalAlign=middle;resizable=0;points=[];" vertex="1" connectable="0" parent="C6PDRTy2qsTD1fmPnYc9-92">
          <mxGeometry x="0.1429" y="-1" relative="1" as="geometry">
            <mxPoint as="offset" />
          </mxGeometry>
        </mxCell>
        <mxCell id="C6PDRTy2qsTD1fmPnYc9-128" style="edgeStyle=orthogonalEdgeStyle;rounded=0;orthogonalLoop=1;jettySize=auto;html=1;exitX=0;exitY=1;exitDx=0;exitDy=0;entryX=1;entryY=0.5;entryDx=0;entryDy=0;endArrow=none;endFill=0;" edge="1" parent="1" source="C6PDRTy2qsTD1fmPnYc9-3" target="C6PDRTy2qsTD1fmPnYc9-28">
          <mxGeometry relative="1" as="geometry" />
        </mxCell>
        <mxCell id="C6PDRTy2qsTD1fmPnYc9-3" value="CATEGORIES" style="rounded=0;whiteSpace=wrap;html=1;" vertex="1" parent="1">
          <mxGeometry x="115" y="720" width="110" height="30" as="geometry" />
        </mxCell>
        <mxCell id="C6PDRTy2qsTD1fmPnYc9-108" style="edgeStyle=orthogonalEdgeStyle;rounded=0;orthogonalLoop=1;jettySize=auto;html=1;exitX=1;exitY=1;exitDx=0;exitDy=0;entryX=0.5;entryY=1;entryDx=0;entryDy=0;endArrow=none;endFill=0;" edge="1" parent="1" source="C6PDRTy2qsTD1fmPnYc9-4" target="C6PDRTy2qsTD1fmPnYc9-14">
          <mxGeometry relative="1" as="geometry" />
        </mxCell>
        <mxCell id="C6PDRTy2qsTD1fmPnYc9-109" style="edgeStyle=orthogonalEdgeStyle;rounded=0;orthogonalLoop=1;jettySize=auto;html=1;exitX=1;exitY=0;exitDx=0;exitDy=0;entryX=0;entryY=1;entryDx=0;entryDy=0;endArrow=none;endFill=0;" edge="1" parent="1" source="C6PDRTy2qsTD1fmPnYc9-4" target="C6PDRTy2qsTD1fmPnYc9-18">
          <mxGeometry relative="1" as="geometry" />
        </mxCell>
        <mxCell id="C6PDRTy2qsTD1fmPnYc9-111" style="edgeStyle=orthogonalEdgeStyle;rounded=0;orthogonalLoop=1;jettySize=auto;html=1;exitX=1;exitY=0;exitDx=0;exitDy=0;entryX=0;entryY=1;entryDx=0;entryDy=0;endArrow=none;endFill=0;" edge="1" parent="1" source="C6PDRTy2qsTD1fmPnYc9-4" target="C6PDRTy2qsTD1fmPnYc9-9">
          <mxGeometry relative="1" as="geometry" />
        </mxCell>
        <mxCell id="C6PDRTy2qsTD1fmPnYc9-112" value="" style="edgeStyle=orthogonalEdgeStyle;rounded=0;orthogonalLoop=1;jettySize=auto;html=1;endArrow=none;endFill=0;" edge="1" parent="1" source="C6PDRTy2qsTD1fmPnYc9-4" target="C6PDRTy2qsTD1fmPnYc9-16">
          <mxGeometry relative="1" as="geometry" />
        </mxCell>
        <mxCell id="C6PDRTy2qsTD1fmPnYc9-114" style="edgeStyle=orthogonalEdgeStyle;rounded=0;orthogonalLoop=1;jettySize=auto;html=1;exitX=0.25;exitY=0;exitDx=0;exitDy=0;entryX=1;entryY=1;entryDx=0;entryDy=0;endArrow=none;endFill=0;" edge="1" parent="1" source="C6PDRTy2qsTD1fmPnYc9-4" target="C6PDRTy2qsTD1fmPnYc9-11">
          <mxGeometry relative="1" as="geometry" />
        </mxCell>
        <mxCell id="C6PDRTy2qsTD1fmPnYc9-115" style="edgeStyle=orthogonalEdgeStyle;rounded=0;orthogonalLoop=1;jettySize=auto;html=1;exitX=0;exitY=0;exitDx=0;exitDy=0;entryX=1;entryY=0.5;entryDx=0;entryDy=0;endArrow=none;endFill=0;" edge="1" parent="1" source="C6PDRTy2qsTD1fmPnYc9-4" target="C6PDRTy2qsTD1fmPnYc9-17">
          <mxGeometry relative="1" as="geometry">
            <Array as="points">
              <mxPoint x="110" y="240" />
              <mxPoint x="110" y="200" />
            </Array>
          </mxGeometry>
        </mxCell>
        <mxCell id="C6PDRTy2qsTD1fmPnYc9-116" style="edgeStyle=orthogonalEdgeStyle;rounded=0;orthogonalLoop=1;jettySize=auto;html=1;exitX=0;exitY=0.25;exitDx=0;exitDy=0;entryX=1;entryY=0.5;entryDx=0;entryDy=0;endArrow=none;endFill=0;" edge="1" parent="1" source="C6PDRTy2qsTD1fmPnYc9-4" target="C6PDRTy2qsTD1fmPnYc9-13">
          <mxGeometry relative="1" as="geometry" />
        </mxCell>
        <mxCell id="C6PDRTy2qsTD1fmPnYc9-117" style="edgeStyle=orthogonalEdgeStyle;rounded=0;orthogonalLoop=1;jettySize=auto;html=1;exitX=0;exitY=1;exitDx=0;exitDy=0;entryX=1;entryY=0.5;entryDx=0;entryDy=0;endArrow=none;endFill=0;" edge="1" parent="1" source="C6PDRTy2qsTD1fmPnYc9-4" target="C6PDRTy2qsTD1fmPnYc9-12">
          <mxGeometry relative="1" as="geometry" />
        </mxCell>
        <mxCell id="C6PDRTy2qsTD1fmPnYc9-4" value="SUPPLIERS" style="rounded=0;whiteSpace=wrap;html=1;" vertex="1" parent="1">
          <mxGeometry x="115" y="240" width="110" height="30" as="geometry" />
        </mxCell>
        <mxCell id="C6PDRTy2qsTD1fmPnYc9-5" value="CUSTOMERS" style="rounded=0;whiteSpace=wrap;html=1;" vertex="1" parent="1">
          <mxGeometry x="590" y="240" width="110" height="30" as="geometry" />
        </mxCell>
        <mxCell id="C6PDRTy2qsTD1fmPnYc9-150" style="edgeStyle=orthogonalEdgeStyle;rounded=0;orthogonalLoop=1;jettySize=auto;html=1;exitX=1;exitY=0.25;exitDx=0;exitDy=0;entryX=0;entryY=0.5;entryDx=0;entryDy=0;endArrow=none;endFill=0;" edge="1" parent="1" source="C6PDRTy2qsTD1fmPnYc9-6" target="C6PDRTy2qsTD1fmPnYc9-57">
          <mxGeometry relative="1" as="geometry" />
        </mxCell>
        <mxCell id="C6PDRTy2qsTD1fmPnYc9-151" style="edgeStyle=orthogonalEdgeStyle;rounded=0;orthogonalLoop=1;jettySize=auto;html=1;exitX=0.25;exitY=0;exitDx=0;exitDy=0;entryX=0;entryY=1;entryDx=0;entryDy=0;endArrow=none;endFill=0;" edge="1" parent="1" source="C6PDRTy2qsTD1fmPnYc9-6" target="C6PDRTy2qsTD1fmPnYc9-60">
          <mxGeometry relative="1" as="geometry" />
        </mxCell>
        <mxCell id="C6PDRTy2qsTD1fmPnYc9-152" style="edgeStyle=orthogonalEdgeStyle;rounded=0;orthogonalLoop=1;jettySize=auto;html=1;exitX=0.75;exitY=0;exitDx=0;exitDy=0;entryX=0;entryY=1;entryDx=0;entryDy=0;endArrow=none;endFill=0;" edge="1" parent="1" source="C6PDRTy2qsTD1fmPnYc9-6" target="C6PDRTy2qsTD1fmPnYc9-59">
          <mxGeometry relative="1" as="geometry" />
        </mxCell>
        <mxCell id="C6PDRTy2qsTD1fmPnYc9-6" value="ADDRESS" style="rounded=0;whiteSpace=wrap;html=1;" vertex="1" parent="1">
          <mxGeometry x="590" y="60" width="110" height="30" as="geometry" />
        </mxCell>
        <mxCell id="C6PDRTy2qsTD1fmPnYc9-88" style="edgeStyle=orthogonalEdgeStyle;rounded=0;orthogonalLoop=1;jettySize=auto;html=1;exitX=0.5;exitY=1;exitDx=0;exitDy=0;endArrow=none;endFill=0;shape=link;" edge="1" parent="1" source="C6PDRTy2qsTD1fmPnYc9-7" target="C6PDRTy2qsTD1fmPnYc9-37">
          <mxGeometry relative="1" as="geometry" />
        </mxCell>
        <mxCell id="C6PDRTy2qsTD1fmPnYc9-89" value="N" style="edgeLabel;html=1;align=center;verticalAlign=middle;resizable=0;points=[];" vertex="1" connectable="0" parent="C6PDRTy2qsTD1fmPnYc9-88">
          <mxGeometry x="-0.0667" y="6" relative="1" as="geometry">
            <mxPoint as="offset" />
          </mxGeometry>
        </mxCell>
        <mxCell id="C6PDRTy2qsTD1fmPnYc9-100" style="edgeStyle=orthogonalEdgeStyle;rounded=0;orthogonalLoop=1;jettySize=auto;html=1;exitX=0;exitY=0;exitDx=0;exitDy=0;entryX=0.5;entryY=1;entryDx=0;entryDy=0;shape=link;" edge="1" parent="1" source="C6PDRTy2qsTD1fmPnYc9-7" target="C6PDRTy2qsTD1fmPnYc9-77">
          <mxGeometry relative="1" as="geometry" />
        </mxCell>
        <mxCell id="C6PDRTy2qsTD1fmPnYc9-101" value="N" style="edgeLabel;html=1;align=center;verticalAlign=middle;resizable=0;points=[];" vertex="1" connectable="0" parent="C6PDRTy2qsTD1fmPnYc9-100">
          <mxGeometry x="0.8806" relative="1" as="geometry">
            <mxPoint as="offset" />
          </mxGeometry>
        </mxCell>
        <mxCell id="C6PDRTy2qsTD1fmPnYc9-135" style="edgeStyle=orthogonalEdgeStyle;rounded=0;orthogonalLoop=1;jettySize=auto;html=1;exitX=0.75;exitY=0;exitDx=0;exitDy=0;entryX=0;entryY=0.5;entryDx=0;entryDy=0;endArrow=none;endFill=0;" edge="1" parent="1" source="C6PDRTy2qsTD1fmPnYc9-7" target="C6PDRTy2qsTD1fmPnYc9-45">
          <mxGeometry relative="1" as="geometry">
            <Array as="points">
              <mxPoint x="690" y="450" />
              <mxPoint x="690" y="375" />
            </Array>
          </mxGeometry>
        </mxCell>
        <mxCell id="C6PDRTy2qsTD1fmPnYc9-136" style="edgeStyle=orthogonalEdgeStyle;rounded=0;orthogonalLoop=1;jettySize=auto;html=1;exitX=1;exitY=0;exitDx=0;exitDy=0;entryX=0;entryY=0.5;entryDx=0;entryDy=0;endArrow=none;endFill=0;" edge="1" parent="1" source="C6PDRTy2qsTD1fmPnYc9-7" target="C6PDRTy2qsTD1fmPnYc9-42">
          <mxGeometry relative="1" as="geometry" />
        </mxCell>
        <mxCell id="C6PDRTy2qsTD1fmPnYc9-137" style="edgeStyle=orthogonalEdgeStyle;rounded=0;orthogonalLoop=1;jettySize=auto;html=1;exitX=1;exitY=0.25;exitDx=0;exitDy=0;entryX=0;entryY=0.5;entryDx=0;entryDy=0;endArrow=none;endFill=0;" edge="1" parent="1" source="C6PDRTy2qsTD1fmPnYc9-7" target="C6PDRTy2qsTD1fmPnYc9-43">
          <mxGeometry relative="1" as="geometry" />
        </mxCell>
        <mxCell id="C6PDRTy2qsTD1fmPnYc9-140" style="edgeStyle=orthogonalEdgeStyle;rounded=0;orthogonalLoop=1;jettySize=auto;html=1;exitX=1;exitY=0.75;exitDx=0;exitDy=0;endArrow=none;endFill=0;" edge="1" parent="1" source="C6PDRTy2qsTD1fmPnYc9-7" target="C6PDRTy2qsTD1fmPnYc9-46">
          <mxGeometry relative="1" as="geometry">
            <Array as="points">
              <mxPoint x="710" y="473" />
              <mxPoint x="710" y="490" />
            </Array>
          </mxGeometry>
        </mxCell>
        <mxCell id="C6PDRTy2qsTD1fmPnYc9-141" style="edgeStyle=orthogonalEdgeStyle;rounded=0;orthogonalLoop=1;jettySize=auto;html=1;exitX=1;exitY=1;exitDx=0;exitDy=0;entryX=0;entryY=0;entryDx=0;entryDy=0;endArrow=none;endFill=0;" edge="1" parent="1" source="C6PDRTy2qsTD1fmPnYc9-7" target="C6PDRTy2qsTD1fmPnYc9-44">
          <mxGeometry relative="1" as="geometry">
            <Array as="points">
              <mxPoint x="700" y="514" />
            </Array>
          </mxGeometry>
        </mxCell>
        <mxCell id="C6PDRTy2qsTD1fmPnYc9-142" style="edgeStyle=orthogonalEdgeStyle;rounded=0;orthogonalLoop=1;jettySize=auto;html=1;exitX=0.75;exitY=1;exitDx=0;exitDy=0;entryX=0;entryY=0.5;entryDx=0;entryDy=0;endArrow=none;endFill=0;" edge="1" parent="1" source="C6PDRTy2qsTD1fmPnYc9-7" target="C6PDRTy2qsTD1fmPnYc9-41">
          <mxGeometry relative="1" as="geometry" />
        </mxCell>
        <mxCell id="C6PDRTy2qsTD1fmPnYc9-7" value="ORDERS" style="rounded=0;whiteSpace=wrap;html=1;" vertex="1" parent="1">
          <mxGeometry x="590" y="450" width="110" height="30" as="geometry" />
        </mxCell>
        <mxCell id="C6PDRTy2qsTD1fmPnYc9-8" value="SHIPPERS" style="rounded=0;whiteSpace=wrap;html=1;" vertex="1" parent="1">
          <mxGeometry x="590" y="720" width="110" height="30" as="geometry" />
        </mxCell>
        <mxCell id="C6PDRTy2qsTD1fmPnYc9-9" value="company name" style="ellipse;whiteSpace=wrap;html=1;" vertex="1" parent="1">
          <mxGeometry x="195" y="180" width="90" height="40" as="geometry" />
        </mxCell>
        <mxCell id="C6PDRTy2qsTD1fmPnYc9-11" value="supplierID" style="ellipse;whiteSpace=wrap;html=1;fontStyle=4" vertex="1" parent="1">
          <mxGeometry x="60" y="140" width="70" height="30" as="geometry" />
        </mxCell>
        <mxCell id="C6PDRTy2qsTD1fmPnYc9-12" value="fax" style="ellipse;whiteSpace=wrap;html=1;" vertex="1" parent="1">
          <mxGeometry x="35" y="280" width="70" height="30" as="geometry" />
        </mxCell>
        <mxCell id="C6PDRTy2qsTD1fmPnYc9-13" value="address" style="ellipse;whiteSpace=wrap;html=1;" vertex="1" parent="1">
          <mxGeometry x="12.5" y="230" width="67.5" height="30" as="geometry" />
        </mxCell>
        <mxCell id="C6PDRTy2qsTD1fmPnYc9-14" value="home page" style="ellipse;whiteSpace=wrap;html=1;" vertex="1" parent="1">
          <mxGeometry x="255" y="260" width="70" height="40" as="geometry" />
        </mxCell>
        <mxCell id="C6PDRTy2qsTD1fmPnYc9-16" value="contact" style="ellipse;shape=doubleEllipse;margin=3;whiteSpace=wrap;html=1;align=center;" vertex="1" parent="1">
          <mxGeometry x="140" y="140" width="75" height="40" as="geometry" />
        </mxCell>
        <mxCell id="C6PDRTy2qsTD1fmPnYc9-17" value="city" style="ellipse;whiteSpace=wrap;html=1;" vertex="1" parent="1">
          <mxGeometry x="22.5" y="185" width="60" height="30" as="geometry" />
        </mxCell>
        <mxCell id="C6PDRTy2qsTD1fmPnYc9-18" value="region" style="ellipse;whiteSpace=wrap;html=1;" vertex="1" parent="1">
          <mxGeometry x="250" y="220" width="75" height="30" as="geometry" />
        </mxCell>
        <mxCell id="C6PDRTy2qsTD1fmPnYc9-98" style="edgeStyle=orthogonalEdgeStyle;rounded=0;orthogonalLoop=1;jettySize=auto;html=1;exitX=0.5;exitY=0;exitDx=0;exitDy=0;entryX=0.5;entryY=1;entryDx=0;entryDy=0;endArrow=none;endFill=0;" edge="1" parent="1" source="C6PDRTy2qsTD1fmPnYc9-19" target="C6PDRTy2qsTD1fmPnYc9-4">
          <mxGeometry relative="1" as="geometry" />
        </mxCell>
        <mxCell id="C6PDRTy2qsTD1fmPnYc9-99" value="1" style="edgeLabel;html=1;align=center;verticalAlign=middle;resizable=0;points=[];" vertex="1" connectable="0" parent="C6PDRTy2qsTD1fmPnYc9-98">
          <mxGeometry x="-0.35" y="1" relative="1" as="geometry">
            <mxPoint as="offset" />
          </mxGeometry>
        </mxCell>
        <mxCell id="C6PDRTy2qsTD1fmPnYc9-19" value="supplier" style="rhombus;whiteSpace=wrap;html=1;" vertex="1" parent="1">
          <mxGeometry x="130" y="310" width="80" height="80" as="geometry" />
        </mxCell>
        <mxCell id="C6PDRTy2qsTD1fmPnYc9-118" style="edgeStyle=orthogonalEdgeStyle;rounded=0;orthogonalLoop=1;jettySize=auto;html=1;exitX=1;exitY=0.5;exitDx=0;exitDy=0;entryX=0.25;entryY=0;entryDx=0;entryDy=0;endArrow=none;endFill=0;" edge="1" parent="1" source="C6PDRTy2qsTD1fmPnYc9-21" target="C6PDRTy2qsTD1fmPnYc9-2">
          <mxGeometry relative="1" as="geometry" />
        </mxCell>
        <mxCell id="C6PDRTy2qsTD1fmPnYc9-21" value="product name" style="ellipse;whiteSpace=wrap;html=1;" vertex="1" parent="1">
          <mxGeometry x="30" y="390" width="85" height="40" as="geometry" />
        </mxCell>
        <mxCell id="C6PDRTy2qsTD1fmPnYc9-22" value="productID" style="ellipse;whiteSpace=wrap;html=1;fontStyle=4" vertex="1" parent="1">
          <mxGeometry x="15" y="450" width="75" height="40" as="geometry" />
        </mxCell>
        <mxCell id="C6PDRTy2qsTD1fmPnYc9-122" style="edgeStyle=orthogonalEdgeStyle;rounded=0;orthogonalLoop=1;jettySize=auto;html=1;exitX=1;exitY=0.5;exitDx=0;exitDy=0;entryX=0.25;entryY=1;entryDx=0;entryDy=0;endArrow=none;endFill=0;" edge="1" parent="1" source="C6PDRTy2qsTD1fmPnYc9-23" target="C6PDRTy2qsTD1fmPnYc9-2">
          <mxGeometry relative="1" as="geometry" />
        </mxCell>
        <mxCell id="C6PDRTy2qsTD1fmPnYc9-23" value="quantityFerUnit" style="ellipse;whiteSpace=wrap;html=1;" vertex="1" parent="1">
          <mxGeometry x="25" y="510" width="95" height="40" as="geometry" />
        </mxCell>
        <mxCell id="C6PDRTy2qsTD1fmPnYc9-24" value="unitPrice" style="ellipse;whiteSpace=wrap;html=1;" vertex="1" parent="1">
          <mxGeometry x="210" y="400" width="70" height="40" as="geometry" />
        </mxCell>
        <mxCell id="C6PDRTy2qsTD1fmPnYc9-123" style="edgeStyle=orthogonalEdgeStyle;rounded=0;orthogonalLoop=1;jettySize=auto;html=1;exitX=0;exitY=0.5;exitDx=0;exitDy=0;entryX=0.75;entryY=1;entryDx=0;entryDy=0;endArrow=none;endFill=0;" edge="1" parent="1" source="C6PDRTy2qsTD1fmPnYc9-25" target="C6PDRTy2qsTD1fmPnYc9-2">
          <mxGeometry relative="1" as="geometry" />
        </mxCell>
        <mxCell id="C6PDRTy2qsTD1fmPnYc9-25" value="unitsInStock" style="ellipse;whiteSpace=wrap;html=1;" vertex="1" parent="1">
          <mxGeometry x="205" y="490" width="80" height="40" as="geometry" />
        </mxCell>
        <mxCell id="C6PDRTy2qsTD1fmPnYc9-94" style="edgeStyle=orthogonalEdgeStyle;rounded=0;orthogonalLoop=1;jettySize=auto;html=1;exitX=0.5;exitY=0;exitDx=0;exitDy=0;entryX=0.5;entryY=1;entryDx=0;entryDy=0;endArrow=none;endFill=0;shape=link;" edge="1" parent="1" source="C6PDRTy2qsTD1fmPnYc9-26" target="C6PDRTy2qsTD1fmPnYc9-2">
          <mxGeometry relative="1" as="geometry" />
        </mxCell>
        <mxCell id="C6PDRTy2qsTD1fmPnYc9-95" value="N" style="edgeLabel;html=1;align=center;verticalAlign=middle;resizable=0;points=[];" vertex="1" connectable="0" parent="C6PDRTy2qsTD1fmPnYc9-94">
          <mxGeometry x="-0.1111" y="-3" relative="1" as="geometry">
            <mxPoint as="offset" />
          </mxGeometry>
        </mxCell>
        <mxCell id="C6PDRTy2qsTD1fmPnYc9-26" value="contains" style="rhombus;whiteSpace=wrap;html=1;" vertex="1" parent="1">
          <mxGeometry x="130" y="570" width="80" height="80" as="geometry" />
        </mxCell>
        <mxCell id="C6PDRTy2qsTD1fmPnYc9-28" value="categoryName" style="ellipse;whiteSpace=wrap;html=1;" vertex="1" parent="1">
          <mxGeometry x="25" y="760" width="90" height="40" as="geometry" />
        </mxCell>
        <mxCell id="C6PDRTy2qsTD1fmPnYc9-130" style="edgeStyle=orthogonalEdgeStyle;rounded=0;orthogonalLoop=1;jettySize=auto;html=1;exitX=0;exitY=0;exitDx=0;exitDy=0;entryX=1;entryY=1;entryDx=0;entryDy=0;endArrow=none;endFill=0;" edge="1" parent="1" source="C6PDRTy2qsTD1fmPnYc9-29" target="C6PDRTy2qsTD1fmPnYc9-3">
          <mxGeometry relative="1" as="geometry" />
        </mxCell>
        <mxCell id="C6PDRTy2qsTD1fmPnYc9-29" value="categoryID" style="ellipse;whiteSpace=wrap;html=1;fontStyle=4" vertex="1" parent="1">
          <mxGeometry x="210" y="770" width="80" height="40" as="geometry" />
        </mxCell>
        <mxCell id="C6PDRTy2qsTD1fmPnYc9-129" style="edgeStyle=orthogonalEdgeStyle;rounded=0;orthogonalLoop=1;jettySize=auto;html=1;exitX=0.5;exitY=0;exitDx=0;exitDy=0;entryX=0.5;entryY=1;entryDx=0;entryDy=0;endArrow=none;endFill=0;" edge="1" parent="1" source="C6PDRTy2qsTD1fmPnYc9-30" target="C6PDRTy2qsTD1fmPnYc9-3">
          <mxGeometry relative="1" as="geometry" />
        </mxCell>
        <mxCell id="C6PDRTy2qsTD1fmPnYc9-30" value="description" style="ellipse;whiteSpace=wrap;html=1;" vertex="1" parent="1">
          <mxGeometry x="130" y="790" width="80" height="40" as="geometry" />
        </mxCell>
        <mxCell id="C6PDRTy2qsTD1fmPnYc9-103" style="edgeStyle=orthogonalEdgeStyle;rounded=0;orthogonalLoop=1;jettySize=auto;html=1;exitX=1;exitY=0.5;exitDx=0;exitDy=0;entryX=0;entryY=0.5;entryDx=0;entryDy=0;shape=link;" edge="1" parent="1" source="C6PDRTy2qsTD1fmPnYc9-31" target="C6PDRTy2qsTD1fmPnYc9-7">
          <mxGeometry relative="1" as="geometry" />
        </mxCell>
        <mxCell id="C6PDRTy2qsTD1fmPnYc9-107" value="N" style="edgeLabel;html=1;align=center;verticalAlign=middle;resizable=0;points=[];" vertex="1" connectable="0" parent="C6PDRTy2qsTD1fmPnYc9-103">
          <mxGeometry x="-0.6" y="-1" relative="1" as="geometry">
            <mxPoint as="offset" />
          </mxGeometry>
        </mxCell>
        <mxCell id="C6PDRTy2qsTD1fmPnYc9-104" style="edgeStyle=orthogonalEdgeStyle;rounded=0;orthogonalLoop=1;jettySize=auto;html=1;exitX=0;exitY=0.5;exitDx=0;exitDy=0;entryX=1;entryY=0.5;entryDx=0;entryDy=0;strokeColor=default;shape=link;" edge="1" parent="1" source="C6PDRTy2qsTD1fmPnYc9-31" target="C6PDRTy2qsTD1fmPnYc9-2">
          <mxGeometry relative="1" as="geometry" />
        </mxCell>
        <mxCell id="C6PDRTy2qsTD1fmPnYc9-105" value="N" style="edgeLabel;html=1;align=center;verticalAlign=middle;resizable=0;points=[];" vertex="1" connectable="0" parent="C6PDRTy2qsTD1fmPnYc9-104">
          <mxGeometry x="-0.5714" y="2" relative="1" as="geometry">
            <mxPoint as="offset" />
          </mxGeometry>
        </mxCell>
        <mxCell id="C6PDRTy2qsTD1fmPnYc9-124" style="edgeStyle=orthogonalEdgeStyle;rounded=0;orthogonalLoop=1;jettySize=auto;html=1;exitX=0;exitY=0;exitDx=0;exitDy=0;entryX=0.5;entryY=1;entryDx=0;entryDy=0;endArrow=none;endFill=0;" edge="1" parent="1" source="C6PDRTy2qsTD1fmPnYc9-31" target="C6PDRTy2qsTD1fmPnYc9-32">
          <mxGeometry relative="1" as="geometry" />
        </mxCell>
        <mxCell id="C6PDRTy2qsTD1fmPnYc9-125" style="edgeStyle=orthogonalEdgeStyle;rounded=0;orthogonalLoop=1;jettySize=auto;html=1;exitX=1;exitY=0;exitDx=0;exitDy=0;entryX=0.5;entryY=1;entryDx=0;entryDy=0;endArrow=none;endFill=0;" edge="1" parent="1" source="C6PDRTy2qsTD1fmPnYc9-31" target="C6PDRTy2qsTD1fmPnYc9-33">
          <mxGeometry relative="1" as="geometry" />
        </mxCell>
        <mxCell id="C6PDRTy2qsTD1fmPnYc9-126" style="edgeStyle=orthogonalEdgeStyle;rounded=0;orthogonalLoop=1;jettySize=auto;html=1;exitX=0;exitY=1;exitDx=0;exitDy=0;entryX=1;entryY=0;entryDx=0;entryDy=0;endArrow=none;endFill=0;" edge="1" parent="1" source="C6PDRTy2qsTD1fmPnYc9-31" target="C6PDRTy2qsTD1fmPnYc9-34">
          <mxGeometry relative="1" as="geometry" />
        </mxCell>
        <mxCell id="C6PDRTy2qsTD1fmPnYc9-31" value="Details" style="rhombus;whiteSpace=wrap;html=1;" vertex="1" parent="1">
          <mxGeometry x="365" y="425" width="80" height="80" as="geometry" />
        </mxCell>
        <mxCell id="C6PDRTy2qsTD1fmPnYc9-32" value="quantity" style="ellipse;whiteSpace=wrap;html=1;" vertex="1" parent="1">
          <mxGeometry x="320" y="390" width="70" height="30" as="geometry" />
        </mxCell>
        <mxCell id="C6PDRTy2qsTD1fmPnYc9-33" value="unitPrice" style="ellipse;whiteSpace=wrap;html=1;" vertex="1" parent="1">
          <mxGeometry x="420" y="390" width="70" height="30" as="geometry" />
        </mxCell>
        <mxCell id="C6PDRTy2qsTD1fmPnYc9-34" value="discount" style="ellipse;whiteSpace=wrap;html=1;" vertex="1" parent="1">
          <mxGeometry x="325" y="520" width="70" height="30" as="geometry" />
        </mxCell>
        <mxCell id="C6PDRTy2qsTD1fmPnYc9-127" style="edgeStyle=orthogonalEdgeStyle;rounded=0;orthogonalLoop=1;jettySize=auto;html=1;exitX=0;exitY=0;exitDx=0;exitDy=0;entryX=1;entryY=1;entryDx=0;entryDy=0;endArrow=none;endFill=0;" edge="1" parent="1" source="C6PDRTy2qsTD1fmPnYc9-36" target="C6PDRTy2qsTD1fmPnYc9-31">
          <mxGeometry relative="1" as="geometry" />
        </mxCell>
        <mxCell id="C6PDRTy2qsTD1fmPnYc9-36" value="Total" style="ellipse;whiteSpace=wrap;html=1;comic=0;dashed=1;" vertex="1" parent="1">
          <mxGeometry x="440" y="510" width="60" height="30" as="geometry" />
        </mxCell>
        <mxCell id="C6PDRTy2qsTD1fmPnYc9-90" style="edgeStyle=orthogonalEdgeStyle;rounded=0;orthogonalLoop=1;jettySize=auto;html=1;exitX=0.5;exitY=1;exitDx=0;exitDy=0;entryX=0.5;entryY=0;entryDx=0;entryDy=0;endArrow=none;endFill=0;" edge="1" parent="1" source="C6PDRTy2qsTD1fmPnYc9-37" target="C6PDRTy2qsTD1fmPnYc9-8">
          <mxGeometry relative="1" as="geometry" />
        </mxCell>
        <mxCell id="C6PDRTy2qsTD1fmPnYc9-91" value="1" style="edgeLabel;html=1;align=center;verticalAlign=middle;resizable=0;points=[];" vertex="1" connectable="0" parent="C6PDRTy2qsTD1fmPnYc9-90">
          <mxGeometry x="0.1143" y="1" relative="1" as="geometry">
            <mxPoint as="offset" />
          </mxGeometry>
        </mxCell>
        <mxCell id="C6PDRTy2qsTD1fmPnYc9-37" value="participate" style="rhombus;whiteSpace=wrap;html=1;" vertex="1" parent="1">
          <mxGeometry x="605" y="570" width="80" height="80" as="geometry" />
        </mxCell>
        <mxCell id="C6PDRTy2qsTD1fmPnYc9-131" style="edgeStyle=orthogonalEdgeStyle;rounded=0;orthogonalLoop=1;jettySize=auto;html=1;exitX=1;exitY=0;exitDx=0;exitDy=0;entryX=0;entryY=0.75;entryDx=0;entryDy=0;endArrow=none;endFill=0;" edge="1" parent="1" source="C6PDRTy2qsTD1fmPnYc9-38" target="C6PDRTy2qsTD1fmPnYc9-8">
          <mxGeometry relative="1" as="geometry" />
        </mxCell>
        <mxCell id="C6PDRTy2qsTD1fmPnYc9-38" value="company name" style="ellipse;whiteSpace=wrap;html=1;" vertex="1" parent="1">
          <mxGeometry x="515" y="770" width="90" height="40" as="geometry" />
        </mxCell>
        <mxCell id="C6PDRTy2qsTD1fmPnYc9-132" style="edgeStyle=orthogonalEdgeStyle;rounded=0;orthogonalLoop=1;jettySize=auto;html=1;exitX=0.5;exitY=0;exitDx=0;exitDy=0;entryX=0.5;entryY=1;entryDx=0;entryDy=0;endArrow=none;endFill=0;" edge="1" parent="1" source="C6PDRTy2qsTD1fmPnYc9-39" target="C6PDRTy2qsTD1fmPnYc9-8">
          <mxGeometry relative="1" as="geometry" />
        </mxCell>
        <mxCell id="C6PDRTy2qsTD1fmPnYc9-39" value="phone" style="ellipse;shape=doubleEllipse;margin=3;whiteSpace=wrap;html=1;align=center;" vertex="1" parent="1">
          <mxGeometry x="612.5" y="800" width="65" height="40" as="geometry" />
        </mxCell>
        <mxCell id="C6PDRTy2qsTD1fmPnYc9-134" style="edgeStyle=orthogonalEdgeStyle;rounded=0;orthogonalLoop=1;jettySize=auto;html=1;exitX=0;exitY=0;exitDx=0;exitDy=0;entryX=1;entryY=1;entryDx=0;entryDy=0;endArrow=none;endFill=0;" edge="1" parent="1" source="C6PDRTy2qsTD1fmPnYc9-40" target="C6PDRTy2qsTD1fmPnYc9-8">
          <mxGeometry relative="1" as="geometry" />
        </mxCell>
        <mxCell id="C6PDRTy2qsTD1fmPnYc9-40" value="shipperID" style="ellipse;whiteSpace=wrap;html=1;fontStyle=4" vertex="1" parent="1">
          <mxGeometry x="688.75" y="770" width="80" height="40" as="geometry" />
        </mxCell>
        <mxCell id="C6PDRTy2qsTD1fmPnYc9-41" value="region" style="ellipse;whiteSpace=wrap;html=1;" vertex="1" parent="1">
          <mxGeometry x="715" y="550" width="70" height="30" as="geometry" />
        </mxCell>
        <mxCell id="C6PDRTy2qsTD1fmPnYc9-42" value="code" style="ellipse;whiteSpace=wrap;html=1;" vertex="1" parent="1">
          <mxGeometry x="710" y="400" width="70" height="30" as="geometry" />
        </mxCell>
        <mxCell id="C6PDRTy2qsTD1fmPnYc9-43" value="shipRegion" style="ellipse;whiteSpace=wrap;html=1;" vertex="1" parent="1">
          <mxGeometry x="737.5" y="440" width="80" height="30" as="geometry" />
        </mxCell>
        <mxCell id="C6PDRTy2qsTD1fmPnYc9-44" value="requiredDate" style="ellipse;whiteSpace=wrap;html=1;" vertex="1" parent="1">
          <mxGeometry x="705" y="510" width="100" height="30" as="geometry" />
        </mxCell>
        <mxCell id="C6PDRTy2qsTD1fmPnYc9-45" value="OrderDate" style="ellipse;whiteSpace=wrap;html=1;" vertex="1" parent="1">
          <mxGeometry x="700" y="360" width="70" height="30" as="geometry" />
        </mxCell>
        <mxCell id="C6PDRTy2qsTD1fmPnYc9-46" value="orderID" style="ellipse;whiteSpace=wrap;html=1;fontStyle=4" vertex="1" parent="1">
          <mxGeometry x="730" y="475" width="70" height="30" as="geometry" />
        </mxCell>
        <mxCell id="C6PDRTy2qsTD1fmPnYc9-84" style="edgeStyle=orthogonalEdgeStyle;rounded=0;orthogonalLoop=1;jettySize=auto;html=1;exitX=0.5;exitY=0;exitDx=0;exitDy=0;entryX=0.5;entryY=1;entryDx=0;entryDy=0;endArrow=none;endFill=0;" edge="1" parent="1" source="C6PDRTy2qsTD1fmPnYc9-47" target="C6PDRTy2qsTD1fmPnYc9-5">
          <mxGeometry relative="1" as="geometry" />
        </mxCell>
        <mxCell id="C6PDRTy2qsTD1fmPnYc9-87" value="1" style="edgeLabel;html=1;align=center;verticalAlign=middle;resizable=0;points=[];" vertex="1" connectable="0" parent="C6PDRTy2qsTD1fmPnYc9-84">
          <mxGeometry y="-1" relative="1" as="geometry">
            <mxPoint as="offset" />
          </mxGeometry>
        </mxCell>
        <mxCell id="C6PDRTy2qsTD1fmPnYc9-85" style="edgeStyle=orthogonalEdgeStyle;rounded=0;orthogonalLoop=1;jettySize=auto;html=1;exitX=0.5;exitY=1;exitDx=0;exitDy=0;entryX=0.5;entryY=0;entryDx=0;entryDy=0;endArrow=none;endFill=0;shape=link;" edge="1" parent="1" source="C6PDRTy2qsTD1fmPnYc9-47" target="C6PDRTy2qsTD1fmPnYc9-7">
          <mxGeometry relative="1" as="geometry" />
        </mxCell>
        <mxCell id="C6PDRTy2qsTD1fmPnYc9-86" value="N" style="edgeLabel;html=1;align=center;verticalAlign=middle;resizable=0;points=[];" vertex="1" connectable="0" parent="C6PDRTy2qsTD1fmPnYc9-85">
          <mxGeometry x="-0.12" y="1" relative="1" as="geometry">
            <mxPoint as="offset" />
          </mxGeometry>
        </mxCell>
        <mxCell id="C6PDRTy2qsTD1fmPnYc9-47" value="request" style="rhombus;whiteSpace=wrap;html=1;" vertex="1" parent="1">
          <mxGeometry x="605" y="320" width="80" height="80" as="geometry" />
        </mxCell>
        <mxCell id="C6PDRTy2qsTD1fmPnYc9-158" style="edgeStyle=orthogonalEdgeStyle;rounded=0;orthogonalLoop=1;jettySize=auto;html=1;exitX=1;exitY=0.5;exitDx=0;exitDy=0;entryX=0;entryY=1;entryDx=0;entryDy=0;endArrow=none;endFill=0;" edge="1" parent="1" source="C6PDRTy2qsTD1fmPnYc9-49" target="C6PDRTy2qsTD1fmPnYc9-5">
          <mxGeometry relative="1" as="geometry" />
        </mxCell>
        <mxCell id="C6PDRTy2qsTD1fmPnYc9-49" value="city" style="ellipse;whiteSpace=wrap;html=1;" vertex="1" parent="1">
          <mxGeometry x="500" y="250" width="70" height="30" as="geometry" />
        </mxCell>
        <mxCell id="C6PDRTy2qsTD1fmPnYc9-157" style="edgeStyle=orthogonalEdgeStyle;rounded=0;orthogonalLoop=1;jettySize=auto;html=1;exitX=1;exitY=0;exitDx=0;exitDy=0;entryX=0.25;entryY=1;entryDx=0;entryDy=0;endArrow=none;endFill=0;" edge="1" parent="1" source="C6PDRTy2qsTD1fmPnYc9-50" target="C6PDRTy2qsTD1fmPnYc9-5">
          <mxGeometry relative="1" as="geometry" />
        </mxCell>
        <mxCell id="C6PDRTy2qsTD1fmPnYc9-50" value="region" style="ellipse;whiteSpace=wrap;html=1;" vertex="1" parent="1">
          <mxGeometry x="550" y="290" width="70" height="30" as="geometry" />
        </mxCell>
        <mxCell id="C6PDRTy2qsTD1fmPnYc9-156" style="edgeStyle=orthogonalEdgeStyle;rounded=0;orthogonalLoop=1;jettySize=auto;html=1;exitX=0;exitY=0.5;exitDx=0;exitDy=0;entryX=1;entryY=1;entryDx=0;entryDy=0;endArrow=none;endFill=0;" edge="1" parent="1" source="C6PDRTy2qsTD1fmPnYc9-51" target="C6PDRTy2qsTD1fmPnYc9-5">
          <mxGeometry relative="1" as="geometry" />
        </mxCell>
        <mxCell id="C6PDRTy2qsTD1fmPnYc9-51" value="phone" style="ellipse;whiteSpace=wrap;html=1;" vertex="1" parent="1">
          <mxGeometry x="720" y="270" width="70" height="30" as="geometry" />
        </mxCell>
        <mxCell id="C6PDRTy2qsTD1fmPnYc9-155" style="edgeStyle=orthogonalEdgeStyle;rounded=0;orthogonalLoop=1;jettySize=auto;html=1;exitX=0;exitY=0.5;exitDx=0;exitDy=0;entryX=1;entryY=0;entryDx=0;entryDy=0;endArrow=none;endFill=0;" edge="1" parent="1" source="C6PDRTy2qsTD1fmPnYc9-52" target="C6PDRTy2qsTD1fmPnYc9-5">
          <mxGeometry relative="1" as="geometry" />
        </mxCell>
        <mxCell id="C6PDRTy2qsTD1fmPnYc9-52" value="company name" style="ellipse;whiteSpace=wrap;html=1;" vertex="1" parent="1">
          <mxGeometry x="725" y="220" width="90" height="40" as="geometry" />
        </mxCell>
        <mxCell id="C6PDRTy2qsTD1fmPnYc9-153" style="edgeStyle=orthogonalEdgeStyle;rounded=0;orthogonalLoop=1;jettySize=auto;html=1;exitX=1;exitY=1;exitDx=0;exitDy=0;entryX=0.25;entryY=0;entryDx=0;entryDy=0;endArrow=none;endFill=0;" edge="1" parent="1" source="C6PDRTy2qsTD1fmPnYc9-53" target="C6PDRTy2qsTD1fmPnYc9-5">
          <mxGeometry relative="1" as="geometry" />
        </mxCell>
        <mxCell id="C6PDRTy2qsTD1fmPnYc9-53" value="contactName" style="ellipse;shape=doubleEllipse;margin=3;whiteSpace=wrap;html=1;align=center;" vertex="1" parent="1">
          <mxGeometry x="520" y="190" width="85" height="40" as="geometry" />
        </mxCell>
        <mxCell id="C6PDRTy2qsTD1fmPnYc9-154" style="edgeStyle=orthogonalEdgeStyle;rounded=0;orthogonalLoop=1;jettySize=auto;html=1;exitX=0;exitY=1;exitDx=0;exitDy=0;entryX=0.75;entryY=0;entryDx=0;entryDy=0;endArrow=none;endFill=0;" edge="1" parent="1" source="C6PDRTy2qsTD1fmPnYc9-55" target="C6PDRTy2qsTD1fmPnYc9-5">
          <mxGeometry relative="1" as="geometry" />
        </mxCell>
        <mxCell id="C6PDRTy2qsTD1fmPnYc9-55" value="CustomerID" style="ellipse;whiteSpace=wrap;html=1;fontStyle=4" vertex="1" parent="1">
          <mxGeometry x="715" y="170" width="90" height="40" as="geometry" />
        </mxCell>
        <mxCell id="C6PDRTy2qsTD1fmPnYc9-57" value="addressID" style="ellipse;whiteSpace=wrap;html=1;fontStyle=4" vertex="1" parent="1">
          <mxGeometry x="730" y="50" width="80" height="40" as="geometry" />
        </mxCell>
        <mxCell id="C6PDRTy2qsTD1fmPnYc9-149" style="edgeStyle=orthogonalEdgeStyle;rounded=0;orthogonalLoop=1;jettySize=auto;html=1;exitX=0;exitY=0;exitDx=0;exitDy=0;entryX=0.75;entryY=1;entryDx=0;entryDy=0;endArrow=none;endFill=0;" edge="1" parent="1" source="C6PDRTy2qsTD1fmPnYc9-58" target="C6PDRTy2qsTD1fmPnYc9-6">
          <mxGeometry relative="1" as="geometry" />
        </mxCell>
        <mxCell id="C6PDRTy2qsTD1fmPnYc9-58" value="addressLine1" style="ellipse;whiteSpace=wrap;html=1;" vertex="1" parent="1">
          <mxGeometry x="680" y="100" width="97.5" height="30" as="geometry" />
        </mxCell>
        <mxCell id="C6PDRTy2qsTD1fmPnYc9-59" value="city" style="ellipse;whiteSpace=wrap;html=1;" vertex="1" parent="1">
          <mxGeometry x="677.5" y="10" width="60" height="30" as="geometry" />
        </mxCell>
        <mxCell id="C6PDRTy2qsTD1fmPnYc9-60" value="postalCode" style="ellipse;whiteSpace=wrap;html=1;" vertex="1" parent="1">
          <mxGeometry x="595" y="10" width="75" height="30" as="geometry" />
        </mxCell>
        <mxCell id="C6PDRTy2qsTD1fmPnYc9-148" style="edgeStyle=orthogonalEdgeStyle;rounded=0;orthogonalLoop=1;jettySize=auto;html=1;exitX=1;exitY=0;exitDx=0;exitDy=0;entryX=0.25;entryY=1;entryDx=0;entryDy=0;endArrow=none;endFill=0;" edge="1" parent="1" source="C6PDRTy2qsTD1fmPnYc9-61" target="C6PDRTy2qsTD1fmPnYc9-6">
          <mxGeometry relative="1" as="geometry" />
        </mxCell>
        <mxCell id="C6PDRTy2qsTD1fmPnYc9-61" value="addressLine2" style="ellipse;whiteSpace=wrap;html=1;" vertex="1" parent="1">
          <mxGeometry x="522.5" y="100" width="97.5" height="30" as="geometry" />
        </mxCell>
        <mxCell id="C6PDRTy2qsTD1fmPnYc9-143" style="edgeStyle=orthogonalEdgeStyle;rounded=0;orthogonalLoop=1;jettySize=auto;html=1;exitX=0.5;exitY=1;exitDx=0;exitDy=0;entryX=0.5;entryY=0;entryDx=0;entryDy=0;endArrow=none;endFill=0;" edge="1" parent="1" source="C6PDRTy2qsTD1fmPnYc9-62" target="C6PDRTy2qsTD1fmPnYc9-1">
          <mxGeometry relative="1" as="geometry" />
        </mxCell>
        <mxCell id="C6PDRTy2qsTD1fmPnYc9-62" value="employeeID" style="ellipse;whiteSpace=wrap;html=1;fontStyle=4" vertex="1" parent="1">
          <mxGeometry x="360" y="30" width="80" height="40" as="geometry" />
        </mxCell>
        <mxCell id="C6PDRTy2qsTD1fmPnYc9-63" value="lastName" style="ellipse;whiteSpace=wrap;html=1;" vertex="1" parent="1">
          <mxGeometry x="440" y="130" width="77.5" height="30" as="geometry" />
        </mxCell>
        <mxCell id="C6PDRTy2qsTD1fmPnYc9-64" value="firstName" style="ellipse;whiteSpace=wrap;html=1;" vertex="1" parent="1">
          <mxGeometry x="450" y="20" width="80" height="30" as="geometry" />
        </mxCell>
        <mxCell id="C6PDRTy2qsTD1fmPnYc9-65" value="city" style="ellipse;whiteSpace=wrap;html=1;" vertex="1" parent="1">
          <mxGeometry x="470" y="60" width="60" height="30" as="geometry" />
        </mxCell>
        <mxCell id="C6PDRTy2qsTD1fmPnYc9-66" value="birth_Date" style="ellipse;whiteSpace=wrap;html=1;" vertex="1" parent="1">
          <mxGeometry x="310" y="140" width="70" height="30" as="geometry" />
        </mxCell>
        <mxCell id="C6PDRTy2qsTD1fmPnYc9-74" style="edgeStyle=orthogonalEdgeStyle;rounded=0;orthogonalLoop=1;jettySize=auto;html=1;exitX=0.5;exitY=0;exitDx=0;exitDy=0;endArrow=none;endFill=0;entryX=0;entryY=0;entryDx=0;entryDy=0;" edge="1" parent="1" source="C6PDRTy2qsTD1fmPnYc9-69" target="C6PDRTy2qsTD1fmPnYc9-1">
          <mxGeometry relative="1" as="geometry">
            <mxPoint x="280" y="120" as="targetPoint" />
          </mxGeometry>
        </mxCell>
        <mxCell id="C6PDRTy2qsTD1fmPnYc9-75" value="1" style="edgeLabel;html=1;align=center;verticalAlign=middle;resizable=0;points=[];" vertex="1" connectable="0" parent="C6PDRTy2qsTD1fmPnYc9-74">
          <mxGeometry x="-0.4522" relative="1" as="geometry">
            <mxPoint as="offset" />
          </mxGeometry>
        </mxCell>
        <mxCell id="C6PDRTy2qsTD1fmPnYc9-69" value="report to" style="rhombus;whiteSpace=wrap;html=1;" vertex="1" parent="1">
          <mxGeometry x="180" y="30" width="80" height="80" as="geometry" />
        </mxCell>
        <mxCell id="C6PDRTy2qsTD1fmPnYc9-77" value="Makes" style="rhombus;whiteSpace=wrap;html=1;" vertex="1" parent="1">
          <mxGeometry x="365" y="220" width="80" height="80" as="geometry" />
        </mxCell>
        <mxCell id="C6PDRTy2qsTD1fmPnYc9-80" style="edgeStyle=orthogonalEdgeStyle;rounded=0;orthogonalLoop=1;jettySize=auto;html=1;exitX=0.5;exitY=0;exitDx=0;exitDy=0;entryX=0.5;entryY=1;entryDx=0;entryDy=0;endArrow=none;endFill=0;shape=link;" edge="1" parent="1" source="C6PDRTy2qsTD1fmPnYc9-79" target="C6PDRTy2qsTD1fmPnYc9-6">
          <mxGeometry relative="1" as="geometry" />
        </mxCell>
        <mxCell id="C6PDRTy2qsTD1fmPnYc9-82" value="1" style="edgeLabel;html=1;align=center;verticalAlign=middle;resizable=0;points=[];" vertex="1" connectable="0" parent="C6PDRTy2qsTD1fmPnYc9-80">
          <mxGeometry x="0.05" y="-2" relative="1" as="geometry">
            <mxPoint as="offset" />
          </mxGeometry>
        </mxCell>
        <mxCell id="C6PDRTy2qsTD1fmPnYc9-81" style="edgeStyle=orthogonalEdgeStyle;rounded=0;orthogonalLoop=1;jettySize=auto;html=1;exitX=0.5;exitY=1;exitDx=0;exitDy=0;entryX=0.5;entryY=0;entryDx=0;entryDy=0;endArrow=none;endFill=0;" edge="1" parent="1" source="C6PDRTy2qsTD1fmPnYc9-79" target="C6PDRTy2qsTD1fmPnYc9-5">
          <mxGeometry relative="1" as="geometry" />
        </mxCell>
        <mxCell id="C6PDRTy2qsTD1fmPnYc9-83" value="1" style="edgeLabel;html=1;align=center;verticalAlign=middle;resizable=0;points=[];" vertex="1" connectable="0" parent="C6PDRTy2qsTD1fmPnYc9-81">
          <mxGeometry x="-0.1333" relative="1" as="geometry">
            <mxPoint as="offset" />
          </mxGeometry>
        </mxCell>
        <mxCell id="C6PDRTy2qsTD1fmPnYc9-79" value="containst" style="shape=rhombus;double=1;perimeter=rhombusPerimeter;whiteSpace=wrap;html=1;align=center;" vertex="1" parent="1">
          <mxGeometry x="600" y="130" width="90" height="80" as="geometry" />
        </mxCell>
        <mxCell id="C6PDRTy2qsTD1fmPnYc9-147" style="edgeStyle=orthogonalEdgeStyle;rounded=0;orthogonalLoop=1;jettySize=auto;html=1;exitX=1;exitY=0;exitDx=0;exitDy=0;entryX=0.2;entryY=1;entryDx=0;entryDy=0;entryPerimeter=0;endArrow=none;endFill=0;" edge="1" parent="1" source="C6PDRTy2qsTD1fmPnYc9-66" target="C6PDRTy2qsTD1fmPnYc9-1">
          <mxGeometry relative="1" as="geometry" />
        </mxCell>
      </root>
    </mxGraphModel>
  </diagram>
</mxfile>
